<svg xmlns="http://www.w3.org/2000/svg" xmlns:osb="http://www.openswatchbook.org/uri/2009/osb" xmlns:xlink="http://www.w3.org/1999/xlink" width="48" height="48" version="1.1">
 <defs>
  <linearGradient id="linearGradient889">
   <stop style="stop-color:#3056a8" offset="0"/>
   <stop style="stop-color:#3892ff" offset="1"/>
  </linearGradient>
  <linearGradient id="linearGradient4806-2">
   <stop style="stop-color:#ffffff" offset="0"/>
   <stop style="stop-color:#ffffff;stop-opacity:0.23529412" offset=".424"/>
   <stop style="stop-color:#ffffff;stop-opacity:0.15686275" offset=".821"/>
   <stop style="stop-color:#ffffff;stop-opacity:0.39215687" offset="1"/>
  </linearGradient>
  <linearGradient id="linearGradient4526" osb:paint="solid">
   <stop style="stop-color:#ffffff" offset="0"/>
  </linearGradient>
  <radialGradient id="radialGradient3300-8" cx="99.189" cy="185.297" r="62.769" fx="99.189" fy="185.297" gradientTransform="matrix(0.2708338,5.3968187e-8,-1.3013671e-8,0.07965667,-2.8638475,26.738674)" gradientUnits="userSpaceOnUse" xlink:href="#linearGradient3820-7-2"/>
  <linearGradient id="linearGradient3820-7-2">
   <stop style="stop-color:#000000" offset="0"/>
   <stop style="stop-color:#000000;stop-opacity:0" offset="1"/>
  </linearGradient>
  <radialGradient id="radialGradient4192-6" cx="99.189" cy="185.297" r="62.769" fx="99.189" fy="185.297" gradientTransform="matrix(0.18055587,3.8547954e-8,0,0.05689651,6.0907669,32.384949)" gradientUnits="userSpaceOnUse" xlink:href="#linearGradient3820-7-2"/>
  <linearGradient id="linearGradient891" x1="24.037" x2="24.037" y1="44.537" y2="4" gradientUnits="userSpaceOnUse" xlink:href="#linearGradient889"/>
  <linearGradient id="linearGradient927" x1="24" x2="24" y1="4.5" y2="44" gradientUnits="userSpaceOnUse" xlink:href="#linearGradient4806-2"/>
 </defs>
 <path style="opacity:0.2;fill:url(#radialGradient3300-8)" d="m 40.999995,41.499935 a 17,4.9989587 0 1 1 -33.9999991,0 17,4.9989587 0 1 1 33.9999991,0 z"/>
 <path style="opacity:0.4;fill:url(#radialGradient4192-6)" d="m 35.333328,42.9285 a 11.333333,3.5706152 0 1 1 -22.666665,0 11.333333,3.5706152 0 1 1 22.666665,0 z"/>
 <path style="fill:none;stroke:#002728;opacity:0.3" d="M 24.000003,3.4999982 C 12.68881,3.4999982 3.4999996,12.688804 3.4999996,23.999998 3.4999996,35.311192 12.68881,44.500003 24.000003,44.5 35.311191,44.5 44.500011,35.311192 44.5,23.999998 44.5,12.688804 35.311191,3.4999982 24.000003,3.4999982 z"/>
 <path style="fill:url(#linearGradient891)" d="M 24.000003,3.4999982 C 12.68881,3.4999982 3.4999996,12.688804 3.4999996,23.999998 3.4999996,35.311192 12.68881,44.500003 24.000003,44.5 35.311191,44.5 44.500011,35.311192 44.5,23.999998 44.5,12.688804 35.311191,3.4999982 24.000003,3.4999982 z"/>
 <path style="opacity:0.15" d="m 21.058594,15 c -0.818368,-0.02462 -1.575741,0.458475 -1.898438,1.210938 L 16.679688,22 h -0.666016 c -0.589209,-0.0083 -1.162042,0.243053 -1.517578,0.638672 -0.355537,0.395619 -0.509766,0.885685 -0.509766,1.361328 0,0.475643 0.154229,0.965709 0.509766,1.361328 C 14.85163,25.756947 15.424463,26.008333 16.013672,26 H 18 c 0.797541,7.76e-4 1.523188,-0.478111 1.837891,-1.210938 a 1.0001,1.0001 0 0 0 0.002,0 l 0.189453,-0.441406 0.990234,6.933594 c 0.144546,1.025001 1.076463,1.703594 1.941407,1.720703 0.864955,0.01711 1.822862,-0.624071 2.007812,-1.642578 v -0.002 l 0.560547,-3.080078 c 0.728488,0.801519 2.055078,0.965307 2.884765,0.136718 L 30.828125,26 h 1.158203 c 0.589209,0.0083 1.162042,-0.243053 1.517578,-0.638672 0.355537,-0.395619 0.509766,-0.885685 0.509766,-1.361328 0,-0.475643 -0.154229,-0.965709 -0.509766,-1.361328 C 33.14837,22.243053 32.575537,21.991667 31.986328,22 H 30 c -0.529987,1.02e-4 -1.039329,0.211155 -1.414062,0.585938 l -0.597657,0.597656 -1.066406,-3.734375 c -0.2694,-0.94093 -1.193527,-1.487997 -2.021484,-1.447266 -0.650976,0.03203 -1.230292,0.503377 -1.574219,1.140625 L 22.980469,16.71875 C 22.844771,15.761021 22.025474,15.028313 21.058594,15 Z M 21,17 l 1.128906,7.896484 a 1.0001,1.0001 0 0 0 1.96875,0.06445 L 23,31 21.503906,20.533203 a 1.0001,1.0001 0 0 0 -1.902344,-0.269531 z m 4,3 1.177734,4.123047 a 1.0001,1.0001 0 0 0 -1.941406,0.08008 z M 18.257812,23.400391 18,24 h -0.660156 a 1.0001,1.0001 0 0 0 0.917968,-0.599609 z M 30,24 h 0.414062 a 1.0001,1.0001 0 0 0 -0.707031,0.292969 z m -3.466797,1.369141 a 1.0001,1.0001 0 0 0 1.667969,0.429687 L 27,27 Z"/>
 <path style="fill:none;stroke:#2c4043;stroke-width:4;stroke-linecap:round;stroke-linejoin:round" d="m 12.783028,33.958893 a 15,15 0 0 1 0.809658,-20.761107 15,15 0 0 1 20.776858,-0.03626 15,15 0 0 1 0.882122,20.758154"/>
 <path style="opacity:0.15;fill:none;stroke:#002728;stroke-width:2;stroke-linecap:round;stroke-linejoin:round" d="M 26.306641,7.1582031 C 19.264964,6.1936132 12.351593,9.7225279 9.0039062,15.992188 5.6562196,22.261847 6.5682968,29.972183 11.287109,35.287109 a 2.0005532,2.0005532 0 1 0 2.992188,-2.65625 c -3.616389,-4.073237 -4.3116839,-9.948983 -1.746094,-14.753906 2.56559,-4.804923 7.83389,-7.495099 13.230469,-6.755859 a 2.0002,2.0002 0 1 0 0.542969,-3.9628909 z"/>
 <path style="fill:none;stroke:#19eab8;stroke-width:4;stroke-linecap:round;stroke-linejoin:round" d="M 12.783028,33.958893 A 15,15 0 0 1 10.768097,16.934821 15,15 0 0 1 26.035734,9.1387825"/>
 <path style="fill:none;stroke:#ffffff;stroke-width:2;stroke-linecap:round;stroke-linejoin:round" d="m 16,24 h 2 l 3,-7 2,14 2,-11 2,7 3,-3 h 2"/>
 <path style="fill:none;stroke:url(#linearGradient927);opacity:0.4" d="m 24.000003,4.4999993 c -10.759428,0 -19.5000032,8.7405717 -19.5000032,19.4999997 0,10.759429 8.7405752,19.500005 19.5000032,19.500002 10.759422,0 19.500007,-8.740573 19.499997,-19.500002 C 43.5,13.240571 34.759425,4.4999993 24.000003,4.4999993 Z"/>
 <path style="fill:none" d="M 12.783028,33.958893 A 15,15 0 0 1 10.768097,16.934821 15,15 0 0 1 26.035734,9.1387825"/>
 <path style="opacity:0.3;fill:#ffffff" d="M 23.679688 7.0039062 C 17.593282 7.1188807 11.933132 10.506235 9.0039062 15.992188 C 5.6562197 22.261847 6.5682972 29.972183 11.287109 35.287109 A 2.0005532 2.0005532 0 1 0 14.279297 32.630859 C 10.662908 28.557622 9.9676132 22.681876 12.533203 17.876953 C 15.098793 13.07203 20.367093 10.381854 25.763672 11.121094 A 2.0002 2.0002 0 1 0 26.306641 7.1582031 C 25.426431 7.0376294 24.549174 6.9874813 23.679688 7.0039062 z M 23.697266 8.0019531 C 24.515733 7.9865551 25.343178 8.0349201 26.171875 8.1484375 A 1.0001 1.0001 0 0 0 26.185547 8.1503906 C 26.608384 8.2016306 26.778815 8.347467 26.90625 8.5351562 C 27.033685 8.7228456 27.094908 8.9999988 27.056641 9.2792969 C 27.018371 9.558595 26.884159 9.8105362 26.710938 9.9570312 C 26.537714 10.103526 26.3351 10.197195 25.914062 10.132812 A 1.0001 1.0001 0 0 0 25.898438 10.130859 C 20.091964 9.3355217 14.410843 12.236382 11.650391 17.40625 C 8.8898987 22.576191 9.6401133 28.912229 13.53125 33.294922 C 13.807988 33.60666 13.841096 33.826347 13.814453 34.050781 C 13.787813 34.275215 13.655103 34.522529 13.447266 34.707031 C 13.239429 34.891534 12.977963 34.994287 12.751953 34.994141 C 12.525943 34.993994 12.311895 34.934781 12.035156 34.623047 C 7.5926624 29.619346 6.7350255 22.365487 9.8867188 16.462891 C 12.644448 11.298124 17.967993 8.1097395 23.697266 8.0019531 z"/>
</svg>
