<svg xmlns="http://www.w3.org/2000/svg" xmlns:osb="http://www.openswatchbook.org/uri/2009/osb" xmlns:xlink="http://www.w3.org/1999/xlink" width="24" height="24" version="1.1">
 <defs>
  <linearGradient id="linearGradient889">
   <stop style="stop-color:#3056a8" offset="0"/>
   <stop style="stop-color:#3892ff" offset="1"/>
  </linearGradient>
  <linearGradient id="linearGradient4806-2">
   <stop style="stop-color:#ffffff" offset="0"/>
   <stop style="stop-color:#ffffff;stop-opacity:0.23529412" offset=".424"/>
   <stop style="stop-color:#ffffff;stop-opacity:0.15686275" offset=".821"/>
   <stop style="stop-color:#ffffff;stop-opacity:0.39215687" offset="1"/>
  </linearGradient>
  <linearGradient id="linearGradient4526" osb:paint="solid">
   <stop style="stop-color:#ffffff" offset="0"/>
  </linearGradient>
  <radialGradient id="radialGradient3300-8" cx="99.189" cy="185.297" r="62.769" fx="99.189" fy="185.297" gradientTransform="matrix(0.14186532,2.826905e-8,0,0.04172492,-2.0715388,12.948512)" gradientUnits="userSpaceOnUse" xlink:href="#linearGradient3820-7-2"/>
  <linearGradient id="linearGradient3820-7-2">
   <stop style="stop-color:#000000" offset="0"/>
   <stop style="stop-color:#000000;stop-opacity:0" offset="1"/>
  </linearGradient>
  <radialGradient id="radialGradient4192-6" cx="99.189" cy="185.297" r="62.769" fx="99.189" fy="185.297" gradientTransform="matrix(0.09457689,2.0191785e-8,0,0.02980293,2.6189733,15.906084)" gradientUnits="userSpaceOnUse" xlink:href="#linearGradient3820-7-2"/>
  <linearGradient id="linearGradient891" x1="24.037" x2="24.037" y1="44.537" y2="4" gradientTransform="matrix(0.5238095,0,0,0.5238095,-0.57142829,-1.0574578)" gradientUnits="userSpaceOnUse" xlink:href="#linearGradient889"/>
  <linearGradient id="linearGradient927" x1="24" x2="24" y1="4.5" y2="44" gradientTransform="matrix(0.5238095,0,0,0.5238095,-0.57142829,-1.0574578)" gradientUnits="userSpaceOnUse" xlink:href="#linearGradient4806-2"/>
 </defs>
 <path style="opacity:0.2;fill:url(#radialGradient3300-8)" d="m 20.904758,20.6806 a 8.9047615,2.618502 0 1 1 -17.8095219,0 8.9047615,2.618502 0 1 1 17.8095219,0 z"/>
 <path style="opacity:0.4;fill:url(#radialGradient4192-6)" d="m 17.936505,21.428896 a 5.9365075,1.8703222 0 1 1 -11.8730149,0 5.9365075,1.8703222 0 1 1 11.8730149,0 z"/>
 <path style="opacity:0.3;fill:none;stroke:#002728;stroke-width:0.52380949" d="m 12.000002,0.77587458 c -5.9249111,0 -10.7380972,4.81318372 -10.7380972,10.73809242 0,5.924911 4.8131861,10.738097 10.7380972,10.738096 5.924906,0 10.738098,-4.813185 10.738092,-10.738096 0,-5.9249087 -4.813186,-10.73809242 -10.738092,-10.73809242 z"/>
 <path style="fill:url(#linearGradient891)" d="m 12.000002,0.77587458 c -5.9249111,0 -10.7380972,4.81318372 -10.7380972,10.73809242 0,5.924911 4.8131861,10.738097 10.7380972,10.738096 5.924906,0 10.738098,-4.813185 10.738092,-10.738096 0,-5.9249087 -4.813186,-10.73809242 -10.738092,-10.73809242 z"/>
 <path style="opacity:0.15" d="M 10.459263,6.7996848 C 10.030594,6.7867886 9.6338752,7.0398383 9.4648434,7.4339856 L 8.1655507,10.466349 H 7.8166852 c -0.3086332,-0.0044 -0.6086886,0.127314 -0.7949217,0.334543 -0.1862337,0.207229 -0.2670203,0.463929 -0.2670203,0.713076 0,0.249147 0.080786,0.505848 0.2670203,0.713077 0.1862331,0.207229 0.4862885,0.338908 0.7949217,0.334542 h 1.0404575 c 0.4177596,4.07e-4 0.7978604,-0.250438 0.9627048,-0.634301 a 0.52386188,0.52386188 0 0 0 0.00105,0 l 0.099233,-0.231212 0.5186955,3.631882 c 0.07571,0.536906 0.563863,0.892359 1.016927,0.90132 0.453072,0.009 0.954832,-0.326894 1.051712,-0.860397 v -10e-4 l 0.293618,-1.613374 c 0.381588,0.419842 1.07647,0.505636 1.511067,0.07161 l 1.264487,-1.264486 h 0.606677 c 0.308632,0.0043 0.608688,-0.127313 0.794917,-0.334542 0.186234,-0.207229 0.267018,-0.46393 0.267018,-0.713077 0,-0.249147 -0.08078,-0.505847 -0.267018,-0.713076 -0.186229,-0.207229 -0.486285,-0.338907 -0.794918,-0.334543 H 15.14286 c -0.277612,5.4e-5 -0.54441,0.110606 -0.740699,0.30692 L 14.089099,11.086327 13.530505,9.1302279 C 13.389391,8.6373599 12.905325,8.350801 12.471633,8.3721363 12.130645,8.3889139 11.827194,8.6358099 11.647042,8.9696065 L 11.46596,7.6999823 C 11.39488,7.1983148 10.965724,6.8145154 10.459263,6.7996848 Z m -0.03069,1.047619 0.591332,4.1362512 a 0.52386188,0.52386188 0 0 0 1.03125,0.03376 L 11.47619,15.180635 10.692522,9.6980288 A 0.52386188,0.52386188 0 0 0 9.6960561,9.5568457 Z m 2.095238,1.5714285 0.616908,2.1596897 a 0.52386188,0.52386188 0 0 0 -1.016927,0.04195 z m -3.5316189,1.7811557 -0.1350444,0.31408 h -0.345796 a 0.52386188,0.52386188 0 0 0 0.4808404,-0.31408 z m 6.1506699,0.31408 h 0.216889 a 0.52386188,0.52386188 0 0 0 -0.370349,0.153461 z m -1.815941,0.71717 a 0.52386188,0.52386188 0 0 0 0.873698,0.225073 l -0.629186,0.629186 z"/>
 <path style="fill:none;stroke:#2c4043;stroke-width:2.09523797;stroke-linecap:round;stroke-linejoin:round" d="M 6.1244438,16.730533 A 7.8571424,7.8571424 0 0 1 6.5485503,5.8556682 7.8571424,7.8571424 0 0 1 17.431665,5.8366736 7.8571424,7.8571424 0 0 1 17.89373,16.709992"/>
 <path style="opacity:0.15;fill:none;stroke:#002728;stroke-width:1.04761899;stroke-linecap:round;stroke-linejoin:round" d="M 13.208241,2.692077 C 9.5197429,2.1868157 5.8984535,4.0352947 4.1449033,7.3194023 2.3913533,10.603508 2.869108,14.642255 5.3408666,17.426263 A 1.0479088,1.0479088 0 1 0 6.9082031,16.034894 C 5.0139042,13.901294 4.6497021,10.823522 5.9935825,8.3066601 7.3374629,5.7897958 10.097049,4.380656 12.923828,4.767877 a 1.0477238,1.0477238 0 1 0 0.284413,-2.0758 z"/>
 <path style="fill:none;stroke:#19eab8;stroke-width:2.09523797;stroke-linecap:round;stroke-linejoin:round" d="M 6.1244438,16.730533 A 7.8571424,7.8571424 0 0 1 5.0690037,7.8131627 7.8571424,7.8571424 0 0 1 13.066337,3.7295235"/>
 <path style="fill:none;stroke:#ffffff;stroke-width:1.04761899;stroke-linecap:round;stroke-linejoin:round" d="m 7.8095237,11.513968 h 1.047619 l 1.5714283,-3.6666642 1.047619,7.3333312 1.047619,-5.7619027 1.047619,3.6666647 1.571429,-1.571429 h 1.047619"/>
 <path style="opacity:0.4;fill:none;stroke:url(#linearGradient927);stroke-width:0.52380949" d="m 12.000002,1.2996847 c -5.6358913,0 -10.2142876,4.5783944 -10.2142876,10.2142833 0,5.635891 4.5783963,10.214288 10.2142876,10.214285 5.635886,0 10.214288,-4.578394 10.214283,-10.214285 0,-5.6358889 -4.578397,-10.2142833 -10.214283,-10.2142833 z"/>
 <path style="fill:none" d="M 6.1244438,16.730533 A 7.8571424,7.8571424 0 0 1 5.0690037,7.8131627 7.8571424,7.8571424 0 0 1 13.066337,3.7295235"/>
 <path style="opacity:0.3;fill:#ffffff" d="M 11.832217,2.6112549 C 8.6441,2.6714797 5.6792596,4.445808 4.1449033,7.3194023 2.3913534,10.603508 2.8691082,14.642255 5.3408666,17.426263 A 1.0479088,1.0479088 0 1 0 6.9082031,16.034894 C 5.0139042,13.901294 4.6497022,10.823522 5.9935825,8.3066601 7.3374629,5.7897958 10.097049,4.380656 12.923828,4.767877 a 1.0477238,1.0477238 0 1 0 0.284413,-2.0758 C 12.747178,2.628919 12.287662,2.602651 11.832217,2.6112549 Z m 0.0092,0.5227864 c 0.428721,-0.00807 0.862145,0.017268 1.296223,0.07673 a 0.52386188,0.52386188 0 0 0 0.0071,0.00102 c 0.221486,0.02684 0.310759,0.1032303 0.377511,0.2015438 0.06675,0.098314 0.09882,0.2434891 0.07878,0.389788 -0.02005,0.1462991 -0.09035,0.2782682 -0.181083,0.3550037 -0.09074,0.076735 -0.196868,0.1258001 -0.417411,0.092075 a 0.52386188,0.52386188 0 0 0 -0.0082,-0.00105 C 9.9529333,3.8325772 6.9771082,5.3520754 5.5311572,8.0601014 4.0851851,10.768164 4.4781546,14.087041 6.516369,16.382737 c 0.144958,0.163291 0.1623003,0.278365 0.1483444,0.395925 -0.013954,0.117562 -0.083469,0.247106 -0.192336,0.34375 C 6.3635104,17.219055 6.226552,17.27288 6.1081658,17.272803 5.9897796,17.272727 5.8776593,17.24171 5.7327008,17.078421 3.4056804,14.457435 2.9564421,10.657795 4.6073289,7.565961 6.0518537,4.860607 8.8403771,3.1905008 11.841425,3.1340413 Z"/>
</svg>
