<svg xmlns="http://www.w3.org/2000/svg" id="svg942" width="16" height="16" version="1.1" viewBox="0 0 4.23 4.23">
 <path style="fill:#666666" transform="scale(0.264375)" d="M 3.0019531 0 L 3.0019531 2.2773438 C 2.7009184 2.4519426 2.4519426 2.7009184 2.2773438 3.0019531 L 0 3.0019531 L 0 4.0039062 L 2.0019531 4.0039062 L 2.0019531 6.0039062 L 0 6.0039062 L 0 7.0058594 L 2.0019531 7.0058594 L 2.0019531 9.0078125 L 0 9.0078125 L 0 10.007812 L 2.0019531 10.007812 L 2.0019531 12.009766 L 0 12.009766 L 0 13.009766 L 2.2773438 13.009766 C 2.4519427 13.3108 2.7009184 13.56173 3.0019531 13.736328 L 3.0019531 16.011719 L 4.0039062 16.011719 L 4.0039062 14.011719 L 6.0039062 14.011719 L 6.0039062 16.011719 L 7.0058594 16.011719 L 7.0058594 14.011719 L 9.0078125 14.011719 L 9.0078125 16.011719 L 10.007812 16.011719 L 10.007812 14.011719 L 12.009766 14.011719 L 12.009766 16.011719 L 13.009766 16.011719 L 13.009766 13.736328 C 13.3108 13.561731 13.56173 13.310801 13.736328 13.009766 L 16.011719 13.009766 L 16.011719 12.009766 L 14.011719 12.009766 L 14.011719 10.007812 L 16.011719 10.007812 L 16.011719 9.0078125 L 14.011719 9.0078125 L 14.011719 7.0058594 L 16.011719 7.0058594 L 16.011719 6.0039062 L 14.011719 6.0039062 L 14.011719 4.0039062 L 16.011719 4.0039062 L 16.011719 3.0019531 L 13.736328 3.0019531 C 13.56173 2.7009184 13.310801 2.4519426 13.009766 2.2773438 L 13.009766 0 L 12.009766 0 L 12.009766 2.0019531 L 10.007812 2.0019531 L 10.007812 0 L 9.0078125 0 L 9.0078125 2.0019531 L 7.0058594 2.0019531 L 7.0058594 0 L 6.0039062 0 L 6.0039062 2.0019531 L 4.0039062 2.0019531 L 4.0039062 0 L 3.0019531 0 z M 4.0058594 3.0019531 L 12.013672 3.0019531 C 12.58542 3.0019531 13.009766 3.4301894 13.009766 4.0019531 L 13.009766 12.009766 C 13.009766 12.581492 12.58542 13.013672 12.013672 13.013672 L 4.0058594 13.013672 C 3.4341117 13.013672 2.9980469 12.581492 2.9980469 12.009766 L 2.9980469 4.0019531 C 2.9980469 3.4301894 3.4341117 3.0019531 4.0058594 3.0019531 z M 6.2578125 5.0058594 C 5.5561017 5.0058594 5.0019531 5.5521754 5.0019531 6.2539062 L 5.0019531 9.7558594 C 5.0019531 10.457552 5.5561145 11.009766 6.2578125 11.009766 L 9.7597656 11.009766 C 10.461464 11.009766 11.005859 10.457552 11.005859 9.7558594 L 11.005859 6.2539062 C 11.005859 5.5521754 10.461476 5.0058594 9.7597656 5.0058594 L 6.2578125 5.0058594 z M 12.009766 10.007812 L 10.007812 12.009766 L 12.009766 12.009766 L 12.009766 10.007812 z"/>
</svg>
