<svg xmlns="http://www.w3.org/2000/svg" xmlns:osb="http://www.openswatchbook.org/uri/2009/osb" xmlns:xlink="http://www.w3.org/1999/xlink" width="16" height="16" version="1.1">
 <defs>
  <linearGradient id="linearGradient889">
   <stop style="stop-color:#3056a8" offset="0"/>
   <stop style="stop-color:#3892ff" offset="1"/>
  </linearGradient>
  <linearGradient id="linearGradient4806-2">
   <stop style="stop-color:#ffffff" offset="0"/>
   <stop style="stop-color:#ffffff;stop-opacity:0.23529412" offset=".424"/>
   <stop style="stop-color:#ffffff;stop-opacity:0.15686275" offset=".821"/>
   <stop style="stop-color:#ffffff;stop-opacity:0.39215687" offset="1"/>
  </linearGradient>
  <linearGradient id="linearGradient4526" osb:paint="solid">
   <stop style="stop-color:#ffffff" offset="0"/>
  </linearGradient>
  <radialGradient id="radialGradient3300-8" cx="99.189" cy="185.297" r="62.769" fx="99.189" fy="185.297" gradientTransform="matrix(0.2708338,5.3968187e-8,-1.3013671e-8,0.07965667,-2.8638475,26.738674)" gradientUnits="userSpaceOnUse" xlink:href="#linearGradient3820-7-2"/>
  <linearGradient id="linearGradient3820-7-2">
   <stop style="stop-color:#000000" offset="0"/>
   <stop style="stop-color:#000000;stop-opacity:0" offset="1"/>
  </linearGradient>
  <radialGradient id="radialGradient4192-6" cx="99.189" cy="185.297" r="62.769" fx="99.189" fy="185.297" gradientTransform="matrix(0.18055587,3.8547954e-8,0,0.05689651,6.0907669,32.384949)" gradientUnits="userSpaceOnUse" xlink:href="#linearGradient3820-7-2"/>
  <linearGradient id="linearGradient891" x1="24.037" x2="24.037" y1="44.537" y2="4" gradientTransform="matrix(0.36585364,0,0,0.36585364,-0.78048749,-0.7804871)" gradientUnits="userSpaceOnUse" xlink:href="#linearGradient889"/>
 </defs>
 <path style="opacity:0.3;fill:#002728" d="M 8 0 C 3.5878168 0 0 3.5878163 0 8 C 0 12.412184 3.5878167 16.000001 8 16 C 12.412181 16 16.000004 12.412184 16 8 C 16 3.5878163 12.412181 0 8 0 z"/>
 <path style="fill:url(#linearGradient891)" d="M 8.0000011,0.5 C 3.8617599,0.5 0.50000009,3.8617581 0.50000009,7.9999997 0.50000009,12.138241 3.8617599,15.500001 8.0000011,15.5 12.13824,15.5 15.500004,12.138241 15.5,7.9999997 15.5,3.8617581 12.13824,0.5 8.0000011,0.5 Z"/>
 <path style="fill:none;stroke:#2c4043;stroke-width:1.41230834;stroke-linecap:round;stroke-linejoin:round" d="M 4.0409987,11.550307 A 5.2961564,5.2961564 0 0 1 4.3268703,4.2200357 5.2961564,5.2961564 0 0 1 11.662703,4.2072323 5.2961564,5.2961564 0 0 1 11.97416,11.536461"/>
 <path style="opacity:0.15;fill:none;stroke:#000000;stroke-linecap:round;stroke-linejoin:round" d="M 8.8164062,2.0878906 C 6.3301517,1.747316 3.8890227,2.9933581 2.7070312,5.2070312 1.5250398,7.4207044 1.8475673,10.142952 3.5136719,12.019531 a 0.70622478,0.70622478 0 1 0 1.0546875,-0.9375 C 3.2914951,9.6438644 3.0472739,7.5695551 3.953125,5.8730469 4.8589761,4.1765387 6.7195917,3.2253196 8.625,3.4863281 A 0.70622478,0.70622478 0 1 0 8.8164062,2.0878906 Z"/>
 <path style="fill:none;stroke:#19eab8;stroke-width:1.41230834;stroke-linecap:round;stroke-linejoin:round" d="M 4.0409987,11.550307 A 5.2961564,5.2961564 0 0 1 3.3295726,5.5394973 5.2961564,5.2961564 0 0 1 8.7202255,2.7868945"/>
 <path style="opacity:0.15;fill:none;stroke:#000000;stroke-linecap:round;stroke-linejoin:round" d="M 6.8476562,5.0332031 A 0.50005,0.50005 0 0 0 6.4257812,5.28125 l -1,1.71875 H 4.953125 a 0.50005,0.50005 0 1 0 0,1 H 5.7148438 A 0.50005,0.50005 0 0 0 6.1464844,7.7519531 L 6.6210938,6.9355469 7.1289062,9.5625 a 0.50005,0.50005 0 0 0 0.9785157,0.011719 L 8.4453125,8.0234375 8.6621094,8.7792969 A 0.50005,0.50005 0 0 0 9.4960938,8.9960938 L 10.492188,8 h 0.554687 a 0.50005,0.50005 0 1 0 0,-1 H 10.285156 A 0.50005,0.50005 0 0 0 9.9316406,7.1464844 L 9.390625,7.6875 8.8613281,5.8378906 a 0.50005,0.50005 0 0 0 -0.96875,0.03125 L 7.6484375,6.9902344 7.3476562,5.4375 a 0.50005,0.50005 0 0 0 -0.5,-0.4042969 z"/>
 <path style="fill:none;stroke:#ffffff;stroke-linecap:round;stroke-linejoin:round" d="M 4.9523811,7.5 H 5.7142858 L 6.857143,5.533 7.6190477,9.467 8.3809525,5.976 9.1428573,8.6424286 10.285714,7.4995714 h 0.761905"/>
 <path style="fill:none" d="M 3.7268679,11.793864 A 5.7142859,5.7142859 0 0 1 2.959275,5.3085033 5.7142859,5.7142859 0 0 1 8.7755178,2.3385837"/>
 <path style="opacity:0.2;fill:#ffffff" d="M 8 0.5 C 3.8617588 0.5 0.5 3.8617584 0.5 8 C 0.5 12.138241 3.8617588 15.500001 8 15.5 C 12.138239 15.5 15.500004 12.138241 15.5 8 C 15.5 3.8617584 12.138239 0.5 8 0.5 z M 8 1 C 11.867451 1 15 4.1325465 15 8 C 15.000004 11.867453 11.867451 15 8 15 C 4.132547 15.000001 1 11.867453 1 8 C 1 4.1325465 4.1325468 1 8 1 z"/>
</svg>
