<?xml version="1.0" encoding="UTF-8" standalone="no"?>
<!-- Created with Inkscape (http://www.inkscape.org/) -->

<svg
   xmlns:dc="http://purl.org/dc/elements/1.1/"
   xmlns:cc="http://creativecommons.org/ns#"
   xmlns:rdf="http://www.w3.org/1999/02/22-rdf-syntax-ns#"
   xmlns:svg="http://www.w3.org/2000/svg"
   xmlns="http://www.w3.org/2000/svg"
   xmlns:sodipodi="http://sodipodi.sourceforge.net/DTD/sodipodi-0.dtd"
   xmlns:inkscape="http://www.inkscape.org/namespaces/inkscape"
   width="16"
   height="16"
   viewBox="0 0 4.2333332 4.2333335"
   version="1.1"
   id="svg8"
   sodipodi:docname="memory.svg"
   inkscape:version="0.92.4 (5da689c313, 2019-01-14)">
  <defs
     id="defs2" />
  <sodipodi:namedview
     id="base"
     pagecolor="#ffffff"
     bordercolor="#666666"
     borderopacity="1.0"
     inkscape:pageopacity="0.0"
     inkscape:pageshadow="2"
     inkscape:zoom="31.678384"
     inkscape:cx="8.1433049"
     inkscape:cy="8.2034262"
     inkscape:document-units="px"
     inkscape:current-layer="layer1"
     showgrid="false"
     units="px"
     inkscape:window-width="1366"
     inkscape:window-height="705"
     inkscape:window-x="-8"
     inkscape:window-y="-8"
     inkscape:window-maximized="1" />
  <metadata
     id="metadata5">
    <rdf:RDF>
      <cc:Work
         rdf:about="">
        <dc:format>image/svg+xml</dc:format>
        <dc:type
           rdf:resource="http://purl.org/dc/dcmitype/StillImage" />
        <dc:title></dc:title>
      </cc:Work>
    </rdf:RDF>
  </metadata>
  <g
     inkscape:label="Layer 1"
     inkscape:groupmode="layer"
     id="layer1"
     transform="translate(0,-292.76665)">
    <path
       style="fill:#555761;fill-opacity:1;stroke-width:0.95551735"
       d="M 3.40625 0.86523438 L 3.40625 15.134766 L 10.824219 15.134766 L 10.824219 0.86523438 L 6.5234375 0.86523438 A 1.0417197 0.4577254 0 0 1 5.4921875 1.2578125 A 1.0417197 0.4577254 0 0 1 4.4628906 0.86523438 L 3.40625 0.86523438 z M 4.4316406 1.8125 L 9.7988281 1.8125 L 9.7988281 14.1875 L 4.4316406 14.1875 L 4.4316406 1.8125 z M 10.828125 2.0976562 L 10.828125 2.6328125 L 12.912109 2.6328125 L 12.912109 3.0761719 L 10.828125 3.0761719 L 10.828125 4.0546875 L 12.912109 4.0546875 L 12.912109 4.4960938 L 10.828125 4.4960938 L 10.828125 5.4746094 L 12.912109 5.4746094 L 12.912109 5.9160156 L 10.828125 5.9160156 L 10.828125 6.8945312 L 12.912109 6.8945312 L 12.912109 7.3359375 L 10.828125 7.3359375 L 10.828125 8.3144531 L 12.912109 8.3144531 L 12.912109 8.7558594 L 10.828125 8.7558594 L 10.828125 10.115234 L 12.880859 10.115234 L 12.880859 10.556641 L 10.828125 10.556641 L 10.828125 11.535156 L 12.880859 11.535156 L 12.880859 11.976562 L 10.828125 11.976562 L 10.828125 12.955078 L 12.880859 12.955078 L 12.880859 13.398438 L 10.828125 13.398438 L 10.828125 13.902344 L 13.353516 13.902344 L 13.353516 9.578125 L 11.617188 9.578125 C 11.529748 9.578125 11.458984 9.5076069 11.458984 9.4199219 C 11.458984 9.3326148 11.529744 9.2617187 11.617188 9.2617188 L 13.353516 9.2617188 L 13.353516 2.0976562 L 10.828125 2.0976562 z "
       transform="matrix(0.26458333,0,0,0.26458333,0,292.76665)"
       id="rect4508" />
    <rect
       style="fill:#555761;fill-opacity:1;stroke-width:0.26458332"
       id="rect4526"
       width="1.0690781"
       height="0.65146947"
       x="1.3482667"
       y="293.5636" />
    <rect
       style="fill:#555761;fill-opacity:1;stroke-width:0.26458332"
       id="rect4526-6"
       width="1.069078"
       height="0.65146941"
       x="1.3482667"
       y="294.53244" />
    <rect
       style="fill:#555761;fill-opacity:1;stroke-width:0.26458332"
       id="rect4526-6-7"
       width="1.0690778"
       height="0.65146941"
       x="1.3482668"
       y="295.50128" />
  </g>
</svg>
