<?xml version="1.0" encoding="UTF-8" standalone="no"?>
<!-- Created with Inkscape (http://www.inkscape.org/) -->

<svg
   xmlns:dc="http://purl.org/dc/elements/1.1/"
   xmlns:cc="http://creativecommons.org/ns#"
   xmlns:rdf="http://www.w3.org/1999/02/22-rdf-syntax-ns#"
   xmlns:svg="http://www.w3.org/2000/svg"
   xmlns="http://www.w3.org/2000/svg"
   xmlns:sodipodi="http://sodipodi.sourceforge.net/DTD/sodipodi-0.dtd"
   xmlns:inkscape="http://www.inkscape.org/namespaces/inkscape"
   width="16"
   height="16"
   viewBox="0 0 4.2333332 4.2333335"
   version="1.1"
   id="svg942"
   inkscape:version="0.92.4 (5da689c313, 2019-01-14)"
   sodipodi:docname="cpu.svg">
  <defs
     id="defs936" />
  <sodipodi:namedview
     id="base"
     pagecolor="#ffffff"
     bordercolor="#666666"
     borderopacity="1.0"
     inkscape:pageopacity="0.0"
     inkscape:pageshadow="2"
     inkscape:zoom="32"
     inkscape:cx="9.381038"
     inkscape:cy="8.0854875"
     inkscape:document-units="px"
     inkscape:current-layer="layer1"
     showgrid="false"
     units="px"
     inkscape:window-width="1366"
     inkscape:window-height="700"
     inkscape:window-x="0"
     inkscape:window-y="34"
     inkscape:window-maximized="1" />
  <metadata
     id="metadata939">
    <rdf:RDF>
      <cc:Work
         rdf:about="">
        <dc:format>image/svg+xml</dc:format>
        <dc:type
           rdf:resource="http://purl.org/dc/dcmitype/StillImage" />
        <dc:title />
      </cc:Work>
    </rdf:RDF>
  </metadata>
  <g
     inkscape:label="Layer 1"
     inkscape:groupmode="layer"
     id="layer1"
     transform="translate(0,-292.76665)">
    <path
       style="fill:#525761;fill-opacity:1;stroke:none;stroke-width:0.602;stroke-miterlimit:4;stroke-dasharray:none;stroke-opacity:0.70588235"
       d="M 3.9980469 0.79296875 C 3.9888247 0.79296875 3.9804687 0.80132471 3.9804688 0.81054688 L 3.9804688 2.9941406 C 3.9804687 3.0033628 3.9888247 3.0117187 3.9980469 3.0117188 L 3.9804688 3.0117188 C 3.4441563 3.0117188 3.0117187 3.4441563 3.0117188 3.9804688 L 3.0117188 4.1054688 C 3.0092902 4.0992913 3.0051066 4.09375 2.9980469 4.09375 L 0.81445312 4.09375 C 0.80523098 4.09375 0.796875 4.1001528 0.796875 4.109375 L 0.796875 5.2011719 C 0.796875 5.210394 0.80523098 5.21875 0.81445312 5.21875 L 2.9980469 5.21875 C 3.0052197 5.21875 3.0093684 5.2114133 3.0117188 5.2050781 L 3.0117188 6.3574219 C 3.0093684 6.3510867 3.0052197 6.34375 2.9980469 6.34375 L 0.81445312 6.34375 C 0.80523098 6.34375 0.796875 6.352106 0.796875 6.3613281 L 0.796875 7.4511719 C 0.796875 7.460394 0.80523098 7.46875 0.81445312 7.46875 L 2.9980469 7.46875 C 3.0052197 7.46875 3.0093684 7.4614133 3.0117188 7.4550781 L 3.0117188 8.6386719 C 3.0093684 8.6323367 3.0052197 8.625 2.9980469 8.625 L 0.81445312 8.625 C 0.80523097 8.625 0.796875 8.633356 0.796875 8.6425781 L 0.796875 9.734375 C 0.796875 9.7435972 0.80523097 9.75 0.81445312 9.75 L 2.9980469 9.75 C 3.0051066 9.75 3.0092902 9.7444587 3.0117188 9.7382812 L 3.0117188 10.888672 C 3.0093684 10.882337 3.0052197 10.875 2.9980469 10.875 L 0.81445312 10.875 C 0.80523097 10.875 0.796875 10.883356 0.796875 10.892578 L 0.796875 11.984375 C 0.796875 11.993597 0.80523097 12 0.81445312 12 L 2.9980469 12 C 3.0051066 12 3.0092902 11.994459 3.0117188 11.988281 L 3.0117188 12.019531 C 3.0117187 12.555844 3.4441563 12.988281 3.9804688 12.988281 L 4.2324219 12.988281 C 4.2260867 12.990632 4.21875 12.99478 4.21875 13.001953 L 4.21875 15.185547 C 4.21875 15.194769 4.227106 15.203125 4.2363281 15.203125 L 5.3261719 15.203125 C 5.335394 15.203125 5.34375 15.194769 5.34375 15.185547 L 5.34375 13.001953 C 5.34375 12.99478 5.3364133 12.990632 5.3300781 12.988281 L 6.4824219 12.988281 C 6.4760867 12.990632 6.46875 12.99478 6.46875 13.001953 L 6.46875 15.185547 C 6.46875 15.194769 6.477106 15.203125 6.4863281 15.203125 L 7.5761719 15.203125 C 7.585394 15.203125 7.59375 15.194769 7.59375 15.185547 L 7.59375 13.001953 C 7.59375 12.99478 7.5864133 12.990632 7.5800781 12.988281 L 8.7324219 12.988281 C 8.7260867 12.990632 8.71875 12.99478 8.71875 13.001953 L 8.71875 15.185547 C 8.71875 15.194769 8.727106 15.203125 8.7363281 15.203125 L 9.8261719 15.203125 C 9.835394 15.203125 9.84375 15.194769 9.84375 15.185547 L 9.84375 13.001953 C 9.84375 12.99478 9.8364133 12.990632 9.8300781 12.988281 L 10.982422 12.988281 C 10.976087 12.990632 10.96875 12.99478 10.96875 13.001953 L 10.96875 15.185547 C 10.96875 15.194769 10.977106 15.203125 10.986328 15.203125 L 12.076172 15.203125 C 12.085394 15.203125 12.09375 15.194769 12.09375 15.185547 L 12.09375 13.001953 C 12.09375 12.992731 12.085394 12.984375 12.076172 12.984375 L 12.039062 12.984375 C 12.565722 12.973376 12.988281 12.5489 12.988281 12.019531 L 12.988281 11.736328 C 12.990632 11.742663 12.99478 11.75 13.001953 11.75 L 15.185547 11.75 C 15.194769 11.75 15.203125 11.741644 15.203125 11.732422 L 15.203125 10.642578 C 15.203125 10.633356 15.194769 10.625 15.185547 10.625 L 13.001953 10.625 C 12.99478 10.625 12.990632 10.632337 12.988281 10.638672 L 12.988281 9.4863281 C 12.990632 9.4926633 12.99478 9.5 13.001953 9.5 L 15.185547 9.5 C 15.194769 9.5 15.203125 9.491644 15.203125 9.4824219 L 15.203125 8.390625 C 15.203125 8.3814028 15.194769 8.375 15.185547 8.375 L 13.001953 8.375 C 12.994893 8.375 12.99071 8.3805413 12.988281 8.3867188 L 12.988281 7.2363281 C 12.990632 7.2426633 12.99478 7.25 13.001953 7.25 L 15.185547 7.25 C 15.194769 7.25 15.203125 7.241644 15.203125 7.2324219 L 15.203125 6.140625 C 15.203125 6.1314028 15.194769 6.125 15.185547 6.125 L 13.001953 6.125 C 12.994893 6.125 12.99071 6.1305413 12.988281 6.1367188 L 12.988281 4.9863281 C 12.990632 4.9926633 12.99478 5 13.001953 5 L 15.185547 5 C 15.194769 5 15.203125 4.991644 15.203125 4.9824219 L 15.203125 3.890625 C 15.203125 3.8814028 15.194769 3.875 15.185547 3.875 L 13.001953 3.875 C 12.992731 3.875 12.984375 3.8814028 12.984375 3.890625 L 12.984375 3.9609375 C 12.973376 3.4342788 12.5489 3.0117187 12.019531 3.0117188 L 11.837891 3.0117188 C 11.847113 3.0117188 11.855469 3.0033628 11.855469 2.9941406 L 11.855469 0.81054688 C 11.855469 0.80132471 11.847113 0.79296875 11.837891 0.79296875 L 10.748047 0.79296875 C 10.738825 0.79296875 10.730469 0.80132471 10.730469 0.81054688 L 10.730469 2.9941406 C 10.730469 3.0033628 10.738825 3.0117187 10.748047 3.0117188 L 9.5878906 3.0117188 C 9.5971128 3.0117188 9.6054688 3.0033628 9.6054688 2.9941406 L 9.6054688 0.81054688 C 9.6054688 0.80132471 9.5971128 0.79296875 9.5878906 0.79296875 L 8.4980469 0.79296875 C 8.4888247 0.79296875 8.4804687 0.80132471 8.4804688 0.81054688 L 8.4804688 2.9941406 C 8.4804688 3.0033628 8.4888247 3.0117187 8.4980469 3.0117188 L 7.3378906 3.0117188 C 7.3471128 3.0117188 7.3554688 3.0033628 7.3554688 2.9941406 L 7.3554688 0.81054688 C 7.3554688 0.80132471 7.3471128 0.79296875 7.3378906 0.79296875 L 6.2480469 0.79296875 C 6.2388247 0.79296875 6.2304687 0.80132471 6.2304688 0.81054688 L 6.2304688 2.9941406 C 6.2304688 3.0033628 6.2388247 3.0117187 6.2480469 3.0117188 L 5.0878906 3.0117188 C 5.0971128 3.0117188 5.1054688 3.0033628 5.1054688 2.9941406 L 5.1054688 0.81054688 C 5.1054688 0.80132471 5.0971128 0.79296875 5.0878906 0.79296875 L 3.9980469 0.79296875 z M 5.6855469 5.1269531 L 10.314453 5.1269531 C 10.623342 5.1269531 10.873047 5.3766581 10.873047 5.6855469 L 10.873047 10.314453 C 10.873047 10.623342 10.623342 10.873047 10.314453 10.873047 L 5.6855469 10.873047 C 5.3766581 10.873047 5.1269531 10.623342 5.1269531 10.314453 L 5.1269531 5.6855469 C 5.1269531 5.3766581 5.3766581 5.1269531 5.6855469 5.1269531 z M 12.351562 10.537109 C 12.359764 10.537109 12.367187 10.545175 12.367188 10.552734 L 12.367188 12.353516 C 12.367188 12.361075 12.359726 12.369141 12.351562 12.369141 L 10.550781 12.369141 C 10.54258 12.369141 10.535156 12.361075 10.535156 12.353516 C 11.866925 11.021761 10.895606 11.992946 12.351562 10.537109 z "
       transform="matrix(0.26458333,0,0,0.26458333,0,292.76665)"
       id="rect961" />
  </g>
</svg>
