<svg xmlns="http://www.w3.org/2000/svg" xmlns:osb="http://www.openswatchbook.org/uri/2009/osb" xmlns:xlink="http://www.w3.org/1999/xlink" width="32" height="32" version="1.1">
 <defs>
  <linearGradient id="linearGradient889">
   <stop style="stop-color:#3056a8" offset="0"/>
   <stop style="stop-color:#3892ff" offset="1"/>
  </linearGradient>
  <linearGradient id="linearGradient4806-2">
   <stop style="stop-color:#ffffff" offset="0"/>
   <stop style="stop-color:#ffffff;stop-opacity:0.23529412" offset=".424"/>
   <stop style="stop-color:#ffffff;stop-opacity:0.15686275" offset=".821"/>
   <stop style="stop-color:#ffffff;stop-opacity:0.39215687" offset="1"/>
  </linearGradient>
  <linearGradient id="linearGradient4526" osb:paint="solid">
   <stop style="stop-color:#ffffff" offset="0"/>
  </linearGradient>
  <radialGradient id="radialGradient3300-8" cx="99.189" cy="185.297" r="62.769" fx="99.189" fy="185.297" gradientTransform="matrix(0.19345271,3.8548705e-8,0,0.05689762,-3.1884622,17.984459)" gradientUnits="userSpaceOnUse" xlink:href="#linearGradient3820-7-2"/>
  <linearGradient id="linearGradient3820-7-2">
   <stop style="stop-color:#000000" offset="0"/>
   <stop style="stop-color:#000000;stop-opacity:0" offset="1"/>
  </linearGradient>
  <radialGradient id="radialGradient4192-6" cx="99.189" cy="185.297" r="62.769" fx="99.189" fy="185.297" gradientTransform="matrix(0.12896848,2.7534253e-8,0,0.04064036,3.2076909,22.017512)" gradientUnits="userSpaceOnUse" xlink:href="#linearGradient3820-7-2"/>
  <linearGradient id="linearGradient891" x1="24.037" x2="24.037" y1="44.537" y2="4" gradientTransform="matrix(0.71428571,0,0,0.71428571,-1.1428569,-1.1145873)" gradientUnits="userSpaceOnUse" xlink:href="#linearGradient889"/>
  <linearGradient id="linearGradient927" x1="24" x2="24" y1="4.5" y2="44" gradientTransform="matrix(0.71428571,0,0,0.71428571,-1.1428569,-1.1145873)" gradientUnits="userSpaceOnUse" xlink:href="#linearGradient4806-2"/>
 </defs>
 <path style="opacity:0.2;fill:url(#radialGradient3300-8)" d="m 28.142854,28.528216 a 12.142857,3.5706848 0 1 1 -24.2857139,0 12.142857,3.5706848 0 1 1 24.2857139,0 z"/>
 <path style="opacity:0.4;fill:url(#radialGradient4192-6)" d="m 24.095234,29.54862 a 8.0952378,2.5504394 0 1 1 -16.1904745,0 8.0952378,2.5504394 0 1 1 16.1904745,0 z"/>
 <path style="opacity:0.3;fill:none;stroke:#002728;stroke-width:0.71428573" d="m 16.000002,1.3854113 c -8.0794232,0 -14.6428592,6.563433 -14.6428592,14.6428507 0,8.079424 6.563436,14.64286 14.6428592,14.642858 8.07942,0 14.642863,-6.563434 14.642855,-14.642858 0,-8.0794177 -6.563435,-14.6428507 -14.642855,-14.6428507 z"/>
 <path style="fill:url(#linearGradient891)" d="m 16.000002,1.3854113 c -8.0794232,0 -14.6428592,6.563433 -14.6428592,14.6428507 0,8.079424 6.563436,14.64286 14.6428592,14.642858 8.07942,0 14.642863,-6.563434 14.642855,-14.642858 0,-8.0794177 -6.563435,-14.6428507 -14.642855,-14.6428507 z"/>
 <path style="opacity:0.15" d="m 13.898996,9.5996985 c -0.584549,-0.017586 -1.125529,0.327481 -1.356027,0.8649505 l -1.771763,4.135043 H 10.29548 c -0.4208634,-0.0059 -0.8300298,0.173609 -1.0839841,0.456194 -0.253955,0.282585 -0.3641186,0.632632 -0.3641186,0.972377 0,0.339745 0.1101636,0.689792 0.3641186,0.972377 0.2539543,0.282585 0.6631207,0.462147 1.0839841,0.456194 h 1.418806 c 0.569672,5.55e-4 1.087991,-0.341507 1.312779,-0.864955 a 0.71435714,0.71435714 0 0 0 0.0014,0 l 0.135323,-0.31529 0.70731,4.952567 c 0.103247,0.732143 0.768902,1.216853 1.38672,1.229073 0.617825,0.01222 1.302044,-0.445765 1.434151,-1.17327 v -0.0014 l 0.400391,-2.200056 c 0.520348,0.572514 1.467913,0.689505 2.060546,0.09766 l 1.724297,-1.724297 h 0.827288 c 0.420864,0.0059 0.83003,-0.173609 1.083984,-0.456194 0.253955,-0.282585 0.364119,-0.632632 0.364119,-0.972377 0,-0.339745 -0.110164,-0.689792 -0.364119,-0.972377 -0.253954,-0.282585 -0.66312,-0.462147 -1.083984,-0.456194 h -1.418806 c -0.378562,7.2e-5 -0.742377,0.150825 -1.010044,0.418527 l -0.426898,0.426897 -0.761718,-2.667411 c -0.192429,-0.672093 -0.85252,-1.062855 -1.443917,-1.033761 -0.464983,0.02288 -0.87878,0.359555 -1.124443,0.814732 l -0.24693,-1.731306 c -0.0969,-0.68412 -0.682111,-1.20748 -1.372739,-1.2277035 z m -0.04185,1.4285645 0.806361,5.640346 a 0.71435714,0.71435714 0 0 0 1.40625,0.04603 l -0.78404,4.313619 -1.068638,-7.476284 a 0.71435714,0.71435714 0 0 0 -1.35882,-0.192517 z m 2.857143,2.142857 0.841238,2.945034 a 0.71435714,0.71435714 0 0 0 -1.386718,0.0572 z m -4.815849,2.428851 -0.184151,0.428292 h -0.47154 a 0.71435714,0.71435714 0 0 0 0.655691,-0.428292 z m 8.387277,0.428292 h 0.295759 a 0.71435714,0.71435714 0 0 0 -0.505022,0.209264 z m -2.476283,0.977958 a 0.71435714,0.71435714 0 0 0 1.191406,0.306919 l -0.85798,0.85798 z"/>
 <path style="fill:none;stroke:#2c4043;stroke-width:2.85714293;stroke-linecap:round;stroke-linejoin:round" d="M 7.9878774,23.14176 A 10.714286,10.714286 0 0 1 8.5662045,8.3123978 10.714286,10.714286 0 0 1 23.406817,8.2864962 10.714286,10.714286 0 0 1 24.036904,23.113749"/>
 <path style="opacity:0.15;fill:none;stroke:#002728;stroke-width:1.42857146;stroke-linecap:round;stroke-linejoin:round" d="M 17.647601,3.9984151 C 12.617832,3.3094223 7.6797095,5.8300756 5.2885046,10.3084 2.8972999,14.786725 3.5487836,20.294108 6.9193638,24.090484 A 1.4289668,1.4289668 0 1 0 9.0566409,22.193162 C 6.4735059,19.283707 5.9768667,15.086746 7.8094309,11.654658 9.6419952,8.2225771 13.405067,6.3010229 17.259766,6.8290514 a 1.4287143,1.4287143 0 1 0 0.387835,-2.8306363 z"/>
 <path style="fill:none;stroke:#19eab8;stroke-width:2.85714293;stroke-linecap:round;stroke-linejoin:round" d="M 7.9878774,23.14176 A 10.714286,10.714286 0 0 1 6.5486407,10.981709 10.714286,10.714286 0 0 1 17.454096,5.4131095"/>
 <path style="fill:none;stroke:#ffffff;stroke-width:1.42857146;stroke-linecap:round;stroke-linejoin:round" d="m 10.285714,16.028263 h 1.428572 l 2.142857,-5 1.428571,10 1.428572,-7.857143 1.428571,5 2.142857,-2.142857 h 1.428572"/>
 <path style="opacity:0.4;fill:none;stroke:url(#linearGradient927);stroke-width:0.71428573" d="m 16.000002,2.0996981 c -7.6853054,0 -13.9285733,6.2432655 -13.9285733,13.9285639 0,7.685307 6.2432679,13.928575 13.9285733,13.928573 7.685302,0 13.928577,-6.243266 13.928569,-13.928573 0,-7.6852984 -6.243267,-13.9285639 -13.928569,-13.9285639 z"/>
 <path style="fill:none" d="M 7.9878774,23.14176 A 10.714286,10.714286 0 0 1 6.5486407,10.981709 10.714286,10.714286 0 0 1 17.454096,5.4131095"/>
 <path style="opacity:0.3;fill:#ffffff" d="M 15.771206,3.888203 C 11.423773,3.9703277 7.3808088,6.3898664 5.2885046,10.3084 2.8973,14.786725 3.5487839,20.294108 6.9193638,24.090484 A 1.4289668,1.4289668 0 1 0 9.0566409,22.193162 C 6.4735059,19.283707 5.9768668,15.086746 7.8094309,11.654658 9.6419952,8.2225771 13.405067,6.3010229 17.259766,6.8290514 A 1.4287143,1.4287143 0 1 0 17.647601,3.9984151 C 17.018879,3.912291 16.392267,3.8764709 15.771206,3.888203 Z m 0.01256,0.7128907 c 0.584619,-0.010999 1.175651,0.023548 1.767578,0.1046317 a 0.71435714,0.71435714 0 0 0 0.0098,0.00139 c 0.302027,0.0366 0.423763,0.1407689 0.514788,0.2748326 0.09102,0.1340638 0.134756,0.3320304 0.107422,0.5315291 -0.02734,0.1994986 -0.123201,0.3794566 -0.246931,0.4840959 -0.123731,0.1046392 -0.268455,0.1715456 -0.569197,0.1255578 a 0.71435714,0.71435714 0 0 0 -0.0112,-0.00143 C 13.208546,5.5536426 9.1506023,7.6256857 7.1788509,11.318442 c -1.9717802,3.692815 -1.4359126,8.218556 1.3434707,11.349051 0.19767,0.22267 0.2213186,0.379589 0.2022879,0.539899 -0.019029,0.16031 -0.1138215,0.336963 -0.2622765,0.46875 C 8.313878,23.80793 8.1271166,23.881325 7.9656809,23.881221 7.8042452,23.881116 7.6513538,23.838821 7.453683,23.616154 4.2804734,20.042081 3.6678756,14.860754 5.9190851,10.644615 7.8888916,6.9555014 11.691424,4.6780839 15.783762,4.6010937 Z"/>
</svg>
