<svg xmlns="http://www.w3.org/2000/svg" xmlns:xlink="http://www.w3.org/1999/xlink" width="64" height="64" version="1.1">
 <defs>
  <linearGradient id="linearGradient4806">
   <stop style="stop-color:#ffffff" offset="0"/>
   <stop style="stop-color:#ffffff;stop-opacity:0.23529412" offset=".424"/>
   <stop style="stop-color:#ffffff;stop-opacity:0.15686275" offset=".821"/>
   <stop style="stop-color:#ffffff;stop-opacity:0.39215687" offset="1"/>
  </linearGradient>
  <linearGradient id="linearGradient3293" x1="71.204" x2="71.204" y1="15.369" y2="40.496" gradientTransform="matrix(2.3268746,0,0,2.3268746,-135.94475,-32.842783)" gradientUnits="userSpaceOnUse" xlink:href="#linearGradient4806"/>
  <linearGradient id="linearGradient23419">
   <stop style="stop-color:#000000" offset="0"/>
   <stop style="stop-color:#000000;stop-opacity:0" offset="1"/>
  </linearGradient>
  <radialGradient id="radialGradient3300-9" cx="99.189" cy="185.297" r="62.769" fx="99.189" fy="185.297" gradientTransform="matrix(0.3823536,7.5555777e-8,-1.8372241e-8,0.1115198,-5.9254271,36.335849)" gradientUnits="userSpaceOnUse" xlink:href="#linearGradient23419"/>
  <radialGradient id="radialGradient4192" cx="99.189" cy="185.297" r="62.769" fx="99.189" fy="185.297" gradientTransform="matrix(0.2549024,5.3967361e-8,-1.2248161e-8,0.07965545,6.7163816,44.240666)" gradientUnits="userSpaceOnUse" xlink:href="#linearGradient23419"/>
  <linearGradient id="linearGradient891" x1="24.037" x2="24.037" y1="44.537" y2="4" gradientTransform="matrix(1.4390244,0,0,1.4390244,-2.5365853,-2.5365843)" gradientUnits="userSpaceOnUse" xlink:href="#linearGradient889"/>
  <linearGradient id="linearGradient889">
   <stop style="stop-color:#3056a8" offset="0"/>
   <stop style="stop-color:#3892ff" offset="1"/>
  </linearGradient>
 </defs>
 <g transform="translate(1.55e-6,-0.00183192)">
  <path style="opacity:0.2;fill:url(#radialGradient3300-9)" d="m 55.999998,57.0017 a 24,6.9985714 0 1 1 -47.9999991,0 24,6.9985714 0 1 1 47.9999991,0 z"/>
  <path style="opacity:0.4;fill:url(#radialGradient4192)" d="m 47.999998,59.0017 a 16,4.9988822 0 1 1 -31.999999,0 16,4.9988822 0 1 1 31.999999,0 z"/>
 </g>
 <path style="fill:url(#linearGradient891)" d="m 32.000005,2.4999985 c -16.277083,0 -29.5000055,13.2229155 -29.5000055,29.4999995 0,16.277085 13.2229225,29.500008 29.5000055,29.500003 C 48.27708,61.500001 61.500016,48.277083 61.5,31.999998 61.5,15.722914 48.27708,2.4999985 32.000005,2.4999985 Z"/>
 <path style="opacity:0.05" d="M 31.494141,6.0095711 C 21.821206,6.1927574 12.831859,11.581986 8.1796875,20.294728 2.8680588,30.242524 4.3122306,42.481095 11.787109,50.921681 c 9.81e-4,0.0011 0.0029,7.6e-4 0.0039,0.002 0.988012,1.153273 2.333582,1.77226 3.662109,1.783203 1.300553,0.01077 2.481951,-0.511483 3.371094,-1.300781 0.889505,-0.789619 1.547876,-1.900888 1.691406,-3.193359 0.132155,-1.190044 -0.293581,-2.427662 -1.119141,-3.484375 a 1.0001,1.0001 0 0 0 -0.195312,-0.34375 c -4.771361,-5.374115 -5.685605,-13.096338 -2.300781,-19.435547 3.38252,-6.334898 10.301631,-9.8726 17.416015,-8.904297 1.494488,0.22318 2.910295,-0.186754 3.919922,-1.041016 0.989671,-0.837375 1.544067,-1.998723 1.705078,-3.173828 C 40.102539,10.654103 39.880271,9.3849906 39.152344,8.3123055 38.408676,7.2164249 37.151759,6.4413748 35.650391,6.2556649 34.259262,6.0661525 32.869751,5.9835198 31.494141,6.0095711 Z"/>
 <path style="opacity:0.5;fill:none;stroke:url(#linearGradient3293);stroke-linecap:round;stroke-linejoin:round" d="m 60.50001,31.999999 c 0,15.740115 -12.7599,28.499999 -28.50002,28.499999 -15.740099,0 -28.499991,-12.759884 -28.499991,-28.499999 0,-15.740116 12.759892,-28.5000013 28.499991,-28.5000013 15.74012,0 28.50002,12.7598853 28.50002,28.5000013 z"/>
 <path style="opacity:0.5;fill-opacity:0;stroke:#00537d;stroke-linecap:round;stroke-linejoin:round" d="m 32,2.499999 c -16.277082,0 -29.5,13.222915 -29.5,29.499998 0,16.277083 13.222918,29.500005 29.5,29.5 16.27708,0 29.50001,-13.222917 29.5,-29.5 C 61.5,15.722914 48.27708,2.499999 32,2.499999 z"/>
 <path style="fill:none;stroke:#2c4043;stroke-width:5.88461828;stroke-linecap:round;stroke-linejoin:round" d="m 15.504163,46.66628 a 22.067318,22.067318 0 0 1 1.191132,-30.542797 22.067318,22.067318 0 0 1 30.565968,-0.05335 22.067318,22.067318 0 0 1 1.297738,30.538452"/>
 <path style="opacity:0.15" d="M 31.513672,6.0097656 C 22.200151,6.1861453 13.543261,11.373906 9.0625,19.765625 c -5.1185042,9.586106 -3.7250271,21.376046 3.484375,29.505859 0.812101,0.949496 1.889052,1.427104 2.914063,1.435547 1.02662,0.0085 1.974547,-0.405533 2.699218,-1.048828 0.724671,-0.643294 1.248014,-1.536258 1.361328,-2.556641 0.113314,-1.020382 -0.232603,-2.146671 -1.082031,-3.066406 l 0.01367,0.01367 c -5.04559,-5.682986 -6.014976,-13.86664 -2.435547,-20.570312 3.579468,-6.703748 10.920144,-10.45323 18.449219,-9.421875 l -0.01563,-0.002 c 1.232634,0.187686 2.357249,-0.15328 3.138672,-0.814454 0.781422,-0.661173 1.230151,-1.589508 1.361328,-2.546875 C 39.082349,9.7359932 38.898994,8.7200446 38.324219,7.8730469 37.750158,7.0271013 36.760929,6.3978937 35.525391,6.2460938 34.181802,6.0625659 32.840618,5.9846359 31.513672,6.0097656 Z m 0.03906,2 c 1.228182,-0.023259 2.469899,0.046528 3.712891,0.2167969 a 1.0001,1.0001 0 0 0 0.01367,0.00195 c 0.738944,0.090029 1.129386,0.3826127 1.390625,0.7675782 0.261239,0.3849654 0.369377,0.9108984 0.298828,1.4257812 -0.07055,0.514883 -0.316714,0.990508 -0.671875,1.291016 -0.355161,0.300507 -0.808995,0.477289 -1.544922,0.365234 a 1.0001,1.0001 0 0 0 -0.01563,-0.002 c -8.349325,-1.143715 -16.515085,3.027119 -20.484375,10.460937 -3.969331,7.433896 -2.889866,16.538106 2.705078,22.839844 a 1.0001,1.0001 0 0 0 0.01367,0.01367 c 0.508032,0.550081 0.615903,1.026936 0.564453,1.490234 -0.05145,0.463299 -0.312962,0.934901 -0.703125,1.28125 -0.390162,0.34635 -0.887385,0.548762 -1.353515,0.544922 -0.466131,-0.0038 -0.926138,-0.166664 -1.41211,-0.736328 a 1.0001,1.0001 0 0 0 -0.01367,-0.01563 C 7.3868516,40.447113 6.099123,29.563664 10.828125,20.707031 14.966051,12.957384 22.957842,8.1725359 31.552734,8.0097656 Z"/>
 <path style="fill:none;stroke:#19eab8;stroke-width:5.88461828;stroke-linecap:round;stroke-linejoin:round" d="M 15.504163,46.66628 A 22.067318,22.067318 0 0 1 12.539888,21.62124 22.067318,22.067318 0 0 1 35.000941,10.152062"/>
 <path style="opacity:0.15;fill:none;stroke:#000000;stroke-width:2;stroke-linecap:round;stroke-linejoin:round" d="m 27.734375,20.001953 a 1.50015,1.50015 0 0 0 -1.447266,0.949219 L 22.34375,31 h -1.855469 a 1.50015,1.50015 0 1 0 0,3 h 2.876953 a 1.50015,1.50015 0 0 0 1.396485,-0.951172 l 2.216797,-5.646484 2.095703,15.300781 a 1.50015,1.50015 0 0 0 2.96289,0.0625 l 1.740235,-9.667969 1.097656,3.816406 a 1.50015,1.50015 0 0 0 2.460938,0.685547 L 41.222656,34 h 2.289063 a 1.50015,1.50015 0 1 0 0,-3 h -2.876953 a 1.50015,1.50015 0 0 0 -1.019532,0.400391 l -2.53125,2.34375 -2.203125,-7.658203 a 1.50015,1.50015 0 0 0 -2.917968,0.148437 l -1.201172,6.677734 -1.591797,-11.615234 a 1.50015,1.50015 0 0 0 -1.435547,-1.294922 z"/>
 <path style="fill:none;stroke:#ffffff;stroke-width:3;stroke-linecap:round;stroke-linejoin:round" d="m 20.487805,32.5 h 2.878049 l 4.317073,-11 2.878049,21 2.878049,-16 2.878049,10 4.317073,-4 h 2.878049"/>
 <path style="fill:none" d="M 15.858505,46.33109 A 21.585365,21.585365 0 0 1 12.95897,21.833036 21.585365,21.585365 0 0 1 34.929471,10.614346"/>
</svg>
