<svg xmlns="http://www.w3.org/2000/svg" id="svg8" width="16" height="16" version="1.1">
 <path style="fill:#666666" d="M 7.9550781,1.4141562e-4 A 2.9999917,2.9831896 0 0 0 5,3.0255314 v 6.33594 a 4,4 0 0 0 -1,2.6386696 4,4 0 0 0 4,4 4,4 0 0 0 4,-4 4,4 0 0 0 -1,-2.6386696 v -2.36133 h 2 v -1 h -2 v -1 h 2 v -1 h -2 v -0.97461 a 2.9999917,2.9831896 0 0 0 0,-0.0254 h 2 v -1 H 10.828125 A 2.9999917,2.9831896 0 0 0 7.9550781,1.3141562e-4 Z M 7.9707031,1.0001414 c 1.1394187,-0.0171 2.0389359,0.87778 2.0292969,2 -3.43e-5,0.004 5.7e-5,0.008 0,0.0117 a 1.0001,1.0001 0 0 0 0,0.0137 v 0.97461 1 1 1 2.36133 a 1.0001,1.0001 0 0 0 0.25,0.6621096 c 0.481857,0.54636 0.748252,1.24811 0.75,1.97656 0,1.6687 -1.3313011,3 -3,3 -1.6680432,0 -2.9989543,-1.33027 -3,-2.99805 v -0.002 c 0.00175,-0.72845 0.2681434,-1.43019 0.75,-1.97656 A 1.0001,1.0001 0 0 0 6,9.3614314 v -6.33594 a 1.0001,1.0001 0 0 0 0,-0.0137 c -0.015822,-1.10348 0.8518949,-1.99518 1.9707031,-2.01172 z M 7,6.0001414 v 3.36133 A 2.0002,2.0002 0 0 1 6.5,10.683731 c -0.3213203,0.36435 -0.49868,0.83262 -0.5,1.31836 0.00103,1.1273 0.8724062,1.99805 2,1.99805 1.1275938,0 1.99897,-0.87075 2,-1.99805 -0.00132,-0.48574 -0.1786797,-0.95401 -0.5,-1.31836 A 2.0002,2.0002 0 0 1 9,9.3614714 v -3.36133 z"/>
</svg>
